<svg width="56" height="40" viewBox="0 0 56 40" fill="none" xmlns="http://www.w3.org/2000/svg">
<g clip-path="url(#clip0_311_1680)">
<path d="M54.2162 13.9256C55.3394 15.0686 55.3394 16.9218 54.2162 18.0648L33.8092 38.8312C32.686 39.9741 30.8649 39.9741 29.7417 38.8312L16.8993 25.7629C15.7761 24.62 15.7761 22.7667 16.8993 21.6237L37.3066 0.857268C38.4298 -0.285756 40.2509 -0.285756 41.374 0.857268L54.2162 13.9256Z" fill="#7A67FF"/>
<path d="M38.5563 13.9256C39.6795 15.0686 39.6795 16.9218 38.5563 18.0648L18.1492 38.8312C17.026 39.9741 15.2049 39.9741 14.0816 38.8312L1.23941 25.7629C0.116161 24.62 0.116161 22.7667 1.23941 21.6237L21.6466 0.857268C22.7698 -0.285756 24.591 -0.285756 25.7141 0.857268L38.5563 13.9256Z" fill="#E8429C"/>
</g>
<defs>
<clipPath id="clip0_311_1680">
<rect width="56" height="40" fill="white"/>
</clipPath>
</defs>
</svg>
